<?xml version="1.0" encoding="UTF-8" standalone="no"?>
<!-- Created with Inkscape (http://www.inkscape.org/) -->

<svg
   xmlns:dc="http://purl.org/dc/elements/1.1/"
   xmlns:cc="http://creativecommons.org/ns#"
   xmlns:rdf="http://www.w3.org/1999/02/22-rdf-syntax-ns#"
   xmlns:svg="http://www.w3.org/2000/svg"
   xmlns="http://www.w3.org/2000/svg"
   xmlns:xlink="http://www.w3.org/1999/xlink"
   xmlns:sodipodi="http://sodipodi.sourceforge.net/DTD/sodipodi-0.dtd"
   xmlns:inkscape="http://www.inkscape.org/namespaces/inkscape"
   width="635.95276"
   height="215.57713"
   id="svg2"
   version="1.1"
   inkscape:version="0.48.4 r9939"
   sodipodi:docname="jmeter.svg">
  <defs
     id="defs4">
    <linearGradient
       inkscape:collect="always"
       xlink:href="#SVGID_1_"
       id="linearGradient3736"
       gradientUnits="userSpaceOnUse"
       gradientTransform="matrix(0.4226,-0.9063,0.9063,0.4226,4226.9761,-6584.5938)"
       x1="-7708.7969"
       y1="-803.36011"
       x2="-7633.1528"
       y2="-714.90741" />
    <linearGradient
       inkscape:collect="always"
       xlink:href="#SVGID_2_"
       id="linearGradient3738"
       gradientUnits="userSpaceOnUse"
       gradientTransform="matrix(0.4226,-0.9063,0.9063,0.4226,4226.9761,-6584.5938)"
       x1="-8268.6387"
       y1="-813.12323"
       x2="-7728.9585"
       y2="-813.12323" />
    <linearGradient
       inkscape:collect="always"
       xlink:href="#SVGID_3_"
       id="linearGradient3740"
       gradientUnits="userSpaceOnUse"
       gradientTransform="matrix(0.4226,-0.9063,0.9063,0.4226,4226.9761,-6584.5938)"
       x1="-8203.4922"
       y1="-758.99402"
       x2="-7881.895"
       y2="-758.99402" />
    <linearGradient
       inkscape:collect="always"
       xlink:href="#SVGID_4_"
       id="linearGradient3742"
       gradientUnits="userSpaceOnUse"
       gradientTransform="matrix(0.4226,-0.9063,0.9063,0.4226,4226.9761,-6584.5938)"
       x1="-8238.3281"
       y1="-818.15222"
       x2="-7698.647"
       y2="-818.15222" />
    <linearGradient
       inkscape:collect="always"
       xlink:href="#SVGID_5_"
       id="linearGradient3744"
       gradientUnits="userSpaceOnUse"
       gradientTransform="matrix(0.4226,-0.9063,0.9063,0.4226,4226.9761,-6584.5938)"
       x1="-8198.9678"
       y1="-810.85059"
       x2="-7915.3501"
       y2="-810.85059" />
    <linearGradient
       inkscape:collect="always"
       xlink:href="#SVGID_6_"
       id="linearGradient3746"
       gradientUnits="userSpaceOnUse"
       gradientTransform="matrix(0.4226,-0.9063,0.9063,0.4226,4226.9761,-6584.5938)"
       x1="-8238.3281"
       y1="-762.29712"
       x2="-7698.647"
       y2="-762.29712" />
    <linearGradient
       inkscape:collect="always"
       xlink:href="#SVGID_7_"
       id="linearGradient3748"
       gradientUnits="userSpaceOnUse"
       gradientTransform="matrix(0.4226,-0.9063,0.9063,0.4226,4226.9761,-6584.5938)"
       x1="-8271.8057"
       y1="-765.07068"
       x2="-7732.125"
       y2="-765.07068" />
    <linearGradient
       inkscape:collect="always"
       xlink:href="#SVGID_8_"
       id="linearGradient3750"
       gradientUnits="userSpaceOnUse"
       gradientTransform="matrix(0.4226,-0.9063,0.9063,0.4226,4226.9761,-6584.5938)"
       x1="-8238.3281"
       y1="-745.68481"
       x2="-7698.647"
       y2="-745.68481" />
    <linearGradient
       inkscape:collect="always"
       xlink:href="#SVGID_9_"
       id="linearGradient3752"
       gradientUnits="userSpaceOnUse"
       gradientTransform="matrix(0.4226,-0.9063,0.9063,0.4226,4226.9761,-6584.5938)"
       x1="-8238.3281"
       y1="-747.58557"
       x2="-7698.647"
       y2="-747.58557" />
    <linearGradient
       inkscape:collect="always"
       xlink:href="#SVGID_10_"
       id="linearGradient3754"
       gradientUnits="userSpaceOnUse"
       gradientTransform="matrix(0.4226,-0.9063,0.9063,0.4226,4226.9761,-6584.5938)"
       x1="-7935.1431"
       y1="-747.9668"
       x2="-7815.856"
       y2="-747.9668" />
    <linearGradient
       inkscape:collect="always"
       xlink:href="#SVGID_1_"
       id="linearGradient9352"
       x1="158.51562"
       y1="220.1655"
       x2="212.90065"
       y2="220.1655"
       gradientUnits="userSpaceOnUse" />
  </defs>
  <sodipodi:namedview
     id="base"
     pagecolor="#ffffff"
     bordercolor="#666666"
     borderopacity="1.0"
     inkscape:pageopacity="0.0"
     inkscape:pageshadow="2"
     inkscape:zoom="0.35"
     inkscape:cx="581.91592"
     inkscape:cy="-77.329554"
     inkscape:document-units="px"
     inkscape:current-layer="layer1"
     showgrid="false"
     showguides="true"
     inkscape:guide-bbox="true"
     inkscape:window-width="1366"
     inkscape:window-height="713"
     inkscape:window-x="0"
     inkscape:window-y="27"
     inkscape:window-maximized="1"
     fit-margin-top="0"
     fit-margin-left="0"
     fit-margin-right="0"
     fit-margin-bottom="0" />
  <metadata
     id="metadata7">
    <rdf:RDF>
      <cc:Work
         rdf:about="">
        <dc:format>image/svg+xml</dc:format>
        <dc:type
           rdf:resource="http://purl.org/dc/dcmitype/StillImage" />
        <dc:title />
      </cc:Work>
    </rdf:RDF>
  </metadata>
  <g
     inkscape:label="Ebene 1"
     inkscape:groupmode="layer"
     id="layer1"
     transform="translate(-58.114272,-84.573563)">
    <g
       id="g3347"
       transform="matrix(0.61056696,0,0,0.61056696,-671.81995,122.75139)" />
    <g
       id="g3349"
       transform="matrix(0.61056696,0,0,0.61056696,-671.81995,122.75139)" />
    <g
       id="g3351"
       transform="matrix(0.61056696,0,0,0.61056696,-671.81995,122.75139)" />
    <g
       id="g3353"
       transform="matrix(0.61056696,0,0,0.61056696,-671.81995,122.75139)" />
    <g
       id="g3355"
       transform="matrix(0.61056696,0,0,0.61056696,-671.81995,122.75139)" />
    <g
       id="g3357"
       transform="matrix(0.61056696,0,0,0.61056696,-671.81995,122.75139)" />
    <g
       id="g3203"
       transform="matrix(0.40251369,0,0,0.40251369,42.335735,77.721624)">
      <linearGradient
         id="SVGID_1_"
         gradientUnits="userSpaceOnUse"
         x1="-7708.7969"
         y1="-803.36011"
         x2="-7633.1528"
         y2="-714.90741"
         gradientTransform="matrix(0.4226,-0.9063,0.9063,0.4226,4226.9761,-6584.5938)">
        <stop
           offset="0"
           style="stop-color:#F69923"
           id="stop3206" />
        <stop
           offset="0.3123"
           style="stop-color:#F79A23"
           id="stop3208" />
        <stop
           offset="0.8383"
           style="stop-color:#E97826"
           id="stop3210" />
      </linearGradient>
      <path
         style="fill:url(#linearGradient3736)"
         inkscape:connector-curvature="0"
         d="m 267.1,19.6 c -8.4,5 -22.4,19 -39,39.3 l 15.3,28.9 c 10.7,-15.4 21.7,-29.2 32.7,-41 0.8,-0.9 1.3,-1.4 1.3,-1.4 -0.4,0.5 -0.9,0.9 -1.3,1.4 -3.6,3.9 -14.4,16.5 -30.7,41.6 15.7,-0.8 39.8,-4 59.5,-7.4 5.9,-32.8 -5.7,-47.8 -5.7,-47.8 0,0 -14.8,-23.9 -32.1,-13.6 z"
         id="path3212" />
      <path
         style="fill:none"
         inkscape:connector-curvature="0"
         d="m 241.1,184.4 c 0.1,0 0.2,0 0.3,-0.1 l -2.2,0.2 c -0.1,0.1 -0.3,0.1 -0.4,0.2 0.8,-0.1 1.6,-0.2 2.3,-0.3 z"
         id="path3214" />
      <path
         style="fill:none"
         inkscape:connector-curvature="0"
         d="m 225.5,236.1 c -1.2,0.3 -2.5,0.5 -3.8,0.7 1.3,-0.2 2.6,-0.4 3.8,-0.7 z"
         id="path3216" />
      <path
         style="fill:none"
         inkscape:connector-curvature="0"
         d="m 119.3,352.2 c 0.2,-0.4 0.3,-0.9 0.5,-1.3 3.4,-8.9 6.7,-17.5 10,-26 3.7,-9.4 7.4,-18.6 11,-27.5 3.8,-9.3 7.6,-18.4 11.3,-27.1 3.9,-9.2 7.7,-18 11.5,-26.5 3.1,-6.9 6.1,-13.6 9.1,-20.1 1,-2.2 2,-4.3 3,-6.4 2,-4.2 3.9,-8.3 5.8,-12.3 1.8,-3.7 3.5,-7.3 5.2,-10.9 0.6,-1.2 1.2,-2.4 1.7,-3.5 0.1,-0.2 0.2,-0.4 0.3,-0.6 l -1.9,0.2 -1.5,-2.9 c -0.1,0.3 -0.3,0.6 -0.4,0.9 -2.7,5.3 -5.4,10.7 -8,16.2 -1.5,3.1 -3,6.3 -4.6,9.5 -4.2,8.8 -8.3,17.6 -12.3,26.6 -4.1,9 -8.1,18.1 -12,27.1 -3.9,8.9 -7.6,17.8 -11.3,26.7 -3.7,8.9 -7.3,17.7 -10.8,26.5 -3.7,9.2 -7.3,18.3 -10.7,27.3 -0.8,2 -1.6,4.1 -2.3,6.1 -2.8,7.3 -5.5,14.4 -8.1,21.5 l 2.4,4.7 2.1,-0.2 c 0.1,-0.2 0.2,-0.4 0.2,-0.6 3.1,-9.5 6.5,-18.6 9.8,-27.4 z"
         id="path3218" />
      <path
         style="fill:none"
         inkscape:connector-curvature="0"
         d="m 220.7,236.9 0,0 c 0,0 0,0 0,0 0,0 0,0 0,0 z"
         id="path3220" />
      <path
         style="fill:#be202e"
         inkscape:connector-curvature="0"
         d="m 215.6,262.2 c -2,0.4 -4,0.7 -6,1 0,0 0,0 0,0 1,-0.1 2.1,-0.3 3.1,-0.5 1,-0.1 2,-0.3 2.9,-0.5 z"
         id="path3222" />
      <path
         style="opacity:0.35;fill:#be202e"
         inkscape:connector-curvature="0"
         d="m 215.6,262.2 c -2,0.4 -4,0.7 -6,1 0,0 0,0 0,0 1,-0.1 2.1,-0.3 3.1,-0.5 1,-0.1 2,-0.3 2.9,-0.5 z"
         id="path3224" />
      <path
         style="fill:#be202e"
         inkscape:connector-curvature="0"
         d="m 220.8,236.9 c 0,0 0,0 0,0 -0.1,0 -0.1,0 0,0 0.3,0 0.6,-0.1 0.9,-0.1 1.3,-0.2 2.6,-0.4 3.8,-0.7 -1.5,0.3 -3.1,0.5 -4.7,0.8 l 0,0 0,0 z"
         id="path3226" />
      <path
         style="opacity:0.35;fill:#be202e"
         inkscape:connector-curvature="0"
         d="m 220.8,236.9 c 0,0 0,0 0,0 -0.1,0 -0.1,0 0,0 0.3,0 0.6,-0.1 0.9,-0.1 1.3,-0.2 2.6,-0.4 3.8,-0.7 -1.5,0.3 -3.1,0.5 -4.7,0.8 l 0,0 0,0 z"
         id="path3228" />
      <linearGradient
         id="SVGID_2_"
         gradientUnits="userSpaceOnUse"
         x1="-8268.6387"
         y1="-813.12323"
         x2="-7728.9585"
         y2="-813.12323"
         gradientTransform="matrix(0.4226,-0.9063,0.9063,0.4226,4226.9761,-6584.5938)">
        <stop
           offset="0.3233"
           style="stop-color:#9E2064"
           id="stop3231" />
        <stop
           offset="0.6302"
           style="stop-color:#C92037"
           id="stop3233" />
        <stop
           offset="0.7514"
           style="stop-color:#CD2335"
           id="stop3235" />
        <stop
           offset="1"
           style="stop-color:#E97826"
           id="stop3237" />
      </linearGradient>
      <path
         style="fill:url(#linearGradient3738)"
         inkscape:connector-curvature="0"
         d="m 198.2,162.4 c 4.7,-8.7 9.4,-17.2 14.1,-25.5 4.9,-8.6 9.9,-16.9 15,-25 0.3,-0.5 0.6,-1 0.9,-1.4 5,-7.9 10,-15.5 15.1,-22.8 L 228,58.9 c -1.1,1.4 -2.3,2.8 -3.5,4.3 -4.4,5.5 -9,11.4 -13.7,17.7 -5.3,7.1 -10.7,14.6 -16.3,22.5 -5.1,7.3 -10.3,15 -15.5,22.9 -4.4,6.8 -8.8,13.7 -13.2,20.8 -0.2,0.3 -0.3,0.5 -0.5,0.8 l 19.9,39.3 c 4.4,-8.3 8.7,-16.6 13,-24.8 z"
         id="path3239" />
      <linearGradient
         id="SVGID_3_"
         gradientUnits="userSpaceOnUse"
         x1="-8203.4922"
         y1="-758.99402"
         x2="-7881.895"
         y2="-758.99402"
         gradientTransform="matrix(0.4226,-0.9063,0.9063,0.4226,4226.9761,-6584.5938)">
        <stop
           offset="0"
           style="stop-color:#282662"
           id="stop3242" />
        <stop
           offset="9.548390e-02"
           style="stop-color:#662E8D"
           id="stop3244" />
        <stop
           offset="0.7882"
           style="stop-color:#9F2064"
           id="stop3246" />
        <stop
           offset="0.9487"
           style="stop-color:#CD2032"
           id="stop3248" />
      </linearGradient>
      <path
         style="fill:url(#linearGradient3740)"
         inkscape:connector-curvature="0"
         d="m 107.5,384.1 c -2.6,7.2 -5.3,14.6 -7.9,22.2 0,0.1 -0.1,0.2 -0.1,0.3 -0.4,1.1 -0.8,2.1 -1.1,3.2 -1.8,5.1 -3.3,9.7 -6.9,20.1 5.9,2.7 10.6,9.7 15,17.7 -0.5,-8.3 -3.9,-16.1 -10.4,-22.1 28.9,1.3 53.9,-6 66.7,-27.2 1.1,-1.9 2.2,-3.9 3.2,-6 -5.9,7.4 -13.1,10.6 -26.8,9.8 0,0 -0.1,0 -0.1,0 0,0 0.1,0 0.1,0 20.1,-9 30.2,-17.7 39.1,-32 2.1,-3.4 4.2,-7.1 6.3,-11.2 -17.6,18.1 -38,23.2 -59.5,19.3 L 109,380 c -0.5,1.4 -1,2.7 -1.5,4.1 z"
         id="path3250" />
      <linearGradient
         id="SVGID_4_"
         gradientUnits="userSpaceOnUse"
         x1="-8238.3281"
         y1="-818.15222"
         x2="-7698.647"
         y2="-818.15222"
         gradientTransform="matrix(0.4226,-0.9063,0.9063,0.4226,4226.9761,-6584.5938)">
        <stop
           offset="0.3233"
           style="stop-color:#9E2064"
           id="stop3253" />
        <stop
           offset="0.6302"
           style="stop-color:#C92037"
           id="stop3255" />
        <stop
           offset="0.7514"
           style="stop-color:#CD2335"
           id="stop3257" />
        <stop
           offset="1"
           style="stop-color:#E97826"
           id="stop3259" />
      </linearGradient>
      <path
         style="fill:url(#linearGradient3742)"
         inkscape:connector-curvature="0"
         d="m 115,348 c 3.5,-9 7.1,-18.1 10.7,-27.3 3.5,-8.8 7.1,-17.6 10.8,-26.5 3.7,-8.9 7.5,-17.8 11.3,-26.7 3.9,-9.1 7.9,-18.1 12,-27.1 4,-8.9 8.2,-17.8 12.3,-26.6 1.5,-3.2 3,-6.3 4.6,-9.5 2.6,-5.4 5.3,-10.8 8,-16.2 0.1,-0.3 0.3,-0.6 0.4,-0.9 L 165.4,148 c -0.3,0.5 -0.6,1.1 -1,1.6 -4.6,7.6 -9.3,15.3 -13.8,23.2 -4.6,8 -9.1,16.1 -13.5,24.4 -3.7,7 -7.3,14 -10.9,21.1 -0.7,1.4 -1.4,2.9 -2.1,4.3 -4.3,8.9 -8.3,17.6 -11.8,25.9 -4,9.4 -7.5,18.4 -10.6,26.9 -2,5.6 -3.9,11 -5.6,16.2 -1.4,4.4 -2.7,8.9 -4,13.3 -3,10.4 -5.5,20.8 -7.6,31.2 l 20,39.5 c 2.6,-7.1 5.4,-14.2 8.1,-21.5 0.8,-2 1.6,-4 2.4,-6.1 z"
         id="path3261" />
      <linearGradient
         id="SVGID_5_"
         gradientUnits="userSpaceOnUse"
         x1="-8198.9678"
         y1="-810.85059"
         x2="-7915.3501"
         y2="-810.85059"
         gradientTransform="matrix(0.4226,-0.9063,0.9063,0.4226,4226.9761,-6584.5938)">
        <stop
           offset="0"
           style="stop-color:#282662"
           id="stop3264" />
        <stop
           offset="9.548390e-02"
           style="stop-color:#662E8D"
           id="stop3266" />
        <stop
           offset="0.7882"
           style="stop-color:#9F2064"
           id="stop3268" />
        <stop
           offset="0.9487"
           style="stop-color:#CD2032"
           id="stop3270" />
      </linearGradient>
      <path
         style="fill:url(#linearGradient3744)"
         inkscape:connector-curvature="0"
         d="m 84.2,337.5 c -2.5,12.6 -4.3,25.2 -5.2,37.8 0,0.4 -0.1,0.9 -0.1,1.3 -6.2,-10 -23,-19.8 -22.9,-19.7 12,17.4 21.1,34.6 22.4,51.5 -6.4,1.3 -15.2,-0.6 -25.3,-4.3 10.6,9.7 18.5,12.4 21.6,13.1 -9.7,0.6 -19.8,7.3 -30,15 14.9,-6.1 27,-8.5 35.6,-6.5 -13.7,38.7 -27.4,81.5 -41.1,126.9 4.2,-1.2 6.7,-4.1 8.1,-7.9 2.4,-8.2 18.7,-62.2 44.1,-133.1 0.7,-2 1.5,-4 2.2,-6.1 0.2,-0.6 0.4,-1.1 0.6,-1.7 2.7,-7.4 5.5,-15 8.4,-22.8 0.7,-1.8 1.3,-3.5 2,-5.3 0,0 0,-0.1 0,-0.1 l -20,-39.5 c -0.2,0.5 -0.3,0.9 -0.4,1.4 z"
         id="path3272" />
      <linearGradient
         id="SVGID_6_"
         gradientUnits="userSpaceOnUse"
         x1="-8238.3281"
         y1="-762.29712"
         x2="-7698.647"
         y2="-762.29712"
         gradientTransform="matrix(0.4226,-0.9063,0.9063,0.4226,4226.9761,-6584.5938)">
        <stop
           offset="0.3233"
           style="stop-color:#9E2064"
           id="stop3275" />
        <stop
           offset="0.6302"
           style="stop-color:#C92037"
           id="stop3277" />
        <stop
           offset="0.7514"
           style="stop-color:#CD2335"
           id="stop3279" />
        <stop
           offset="1"
           style="stop-color:#E97826"
           id="stop3281" />
      </linearGradient>
      <path
         style="fill:url(#linearGradient3746)"
         inkscape:connector-curvature="0"
         d="m 188.4,190.6 c -0.6,1.2 -1.1,2.3 -1.7,3.5 -1.7,3.6 -3.5,7.2 -5.2,10.9 -1.9,4 -3.8,8.1 -5.8,12.3 -1,2.1 -2,4.2 -3,6.4 -3,6.5 -6,13.2 -9.1,20.1 -3.8,8.5 -7.6,17.3 -11.5,26.5 -3.7,8.7 -7.5,17.8 -11.3,27.1 -3.6,8.9 -7.3,18 -11,27.5 -3.3,8.4 -6.6,17.1 -10,26 -0.2,0.4 -0.3,0.9 -0.5,1.3 -3.3,8.8 -6.7,17.9 -10.1,27.2 -0.1,0.2 -0.2,0.4 -0.2,0.6 l 16.1,-1.8 c -0.3,-0.1 -0.6,-0.1 -1,-0.2 19.3,-2.4 44.9,-16.8 61.4,-34.6 7.6,-8.2 14.5,-17.8 20.9,-29.1 4.8,-8.4 9.2,-17.7 13.5,-28.1 3.7,-9 7.3,-18.8 10.7,-29.4 -4.4,2.3 -9.5,4 -15.1,5.2 -1,0.2 -2,0.4 -3,0.6 -1,0.2 -2,0.3 -3.1,0.5 l 0,0 0,0 c 0,0 0,0 0,0 18,-6.9 29.3,-20.2 37.5,-36.6 -4.7,3.2 -12.4,7.4 -21.6,9.5 -1.2,0.3 -2.5,0.5 -3.8,0.7 -0.3,0 -0.6,0.1 -1,0.1 l 0,0 0,0 c 0,0 0,0 0,0 0,0 0,0 0,0 l 0,0 c 6.2,-2.6 11.5,-5.5 16.1,-9 1,-0.7 1.9,-1.5 2.8,-2.3 1.4,-1.2 2.7,-2.5 4,-3.8 0.8,-0.9 1.6,-1.7 2.4,-2.6 1.8,-2.1 3.5,-4.4 5,-6.9 0.5,-0.8 1,-1.5 1.4,-2.3 0.6,-1.2 1.2,-2.3 1.7,-3.4 2.5,-5 4.5,-9.5 6.1,-13.5 0.8,-2 1.5,-3.8 2.1,-5.5 0.2,-0.7 0.5,-1.3 0.7,-2 0.6,-1.9 1.2,-3.6 1.6,-5.1 0.6,-2.2 1,-4 1.2,-5.3 l 0,0 0,0 c -0.6,0.5 -1.3,1 -2.1,1.4 -5.4,3.2 -14.7,6.2 -22.2,7.6 l 14.8,-1.6 -14.8,1.6 c -0.1,0 -0.2,0 -0.3,0.1 -0.7,0.1 -1.5,0.2 -2.3,0.4 0.1,-0.1 0.3,-0.1 0.4,-0.2 l -50.6,5.5 c 0.1,0.4 0,0.6 -0.1,0.7 z"
         id="path3283" />
      <linearGradient
         id="SVGID_7_"
         gradientUnits="userSpaceOnUse"
         x1="-8271.8057"
         y1="-765.07068"
         x2="-7732.125"
         y2="-765.07068"
         gradientTransform="matrix(0.4226,-0.9063,0.9063,0.4226,4226.9761,-6584.5938)">
        <stop
           offset="0.3233"
           style="stop-color:#9E2064"
           id="stop3286" />
        <stop
           offset="0.6302"
           style="stop-color:#C92037"
           id="stop3288" />
        <stop
           offset="0.7514"
           style="stop-color:#CD2335"
           id="stop3290" />
        <stop
           offset="1"
           style="stop-color:#E97826"
           id="stop3292" />
      </linearGradient>
      <path
         style="fill:url(#linearGradient3748)"
         inkscape:connector-curvature="0"
         d="m 245.4,88.4 c -4.5,6.9 -9.4,14.8 -14.7,23.6 -0.3,0.5 -0.6,0.9 -0.8,1.4 -4.6,7.7 -9.4,16.1 -14.5,25.4 -4.4,8 -9,16.5 -13.8,25.8 -4.2,8 -8.4,16.5 -12.9,25.5 l 50.6,-5.5 c 14.7,-6.8 21.3,-12.9 27.7,-21.8 1.7,-2.4 3.4,-5 5.1,-7.7 5.2,-8.1 10.3,-17 14.8,-25.9 4.4,-8.6 8.3,-17.1 11.2,-24.7 1.9,-4.9 3.4,-9.4 4.5,-13.4 0.9,-3.5 1.6,-6.8 2.2,-10 -19.6,3.3 -43.7,6.5 -59.4,7.3 z"
         id="path3294" />
      <path
         style="fill:#be202e"
         inkscape:connector-curvature="0"
         d="m 212.7,262.8 c -1,0.2 -2,0.3 -3.1,0.5 l 0,0 c 1,-0.2 2,-0.4 3.1,-0.5 z"
         id="path3296" />
      <path
         style="opacity:0.35;fill:#be202e"
         inkscape:connector-curvature="0"
         d="m 212.7,262.8 c -1,0.2 -2,0.3 -3.1,0.5 l 0,0 c 1,-0.2 2,-0.4 3.1,-0.5 z"
         id="path3298" />
      <linearGradient
         id="SVGID_8_"
         gradientUnits="userSpaceOnUse"
         x1="-8238.3281"
         y1="-745.68481"
         x2="-7698.647"
         y2="-745.68481"
         gradientTransform="matrix(0.4226,-0.9063,0.9063,0.4226,4226.9761,-6584.5938)">
        <stop
           offset="0.3233"
           style="stop-color:#9E2064"
           id="stop3301" />
        <stop
           offset="0.6302"
           style="stop-color:#C92037"
           id="stop3303" />
        <stop
           offset="0.7514"
           style="stop-color:#CD2335"
           id="stop3305" />
        <stop
           offset="1"
           style="stop-color:#E97826"
           id="stop3307" />
      </linearGradient>
      <path
         style="fill:url(#linearGradient3750)"
         inkscape:connector-curvature="0"
         d="m 212.7,262.8 c -1,0.2 -2,0.3 -3.1,0.5 l 0,0 c 1,-0.2 2,-0.4 3.1,-0.5 z"
         id="path3309" />
      <path
         style="fill:#be202e"
         inkscape:connector-curvature="0"
         d="m 220.7,236.9 c 0.3,0 0.6,-0.1 1,-0.1 -0.3,0 -0.6,0.1 -1,0.1 l 0,0 z"
         id="path3311" />
      <path
         style="opacity:0.35;fill:#be202e"
         inkscape:connector-curvature="0"
         d="m 220.7,236.9 c 0.3,0 0.6,-0.1 1,-0.1 -0.3,0 -0.6,0.1 -1,0.1 l 0,0 z"
         id="path3313" />
      <linearGradient
         id="SVGID_9_"
         gradientUnits="userSpaceOnUse"
         x1="-8238.3281"
         y1="-747.58557"
         x2="-7698.647"
         y2="-747.58557"
         gradientTransform="matrix(0.4226,-0.9063,0.9063,0.4226,4226.9761,-6584.5938)">
        <stop
           offset="0.3233"
           style="stop-color:#9E2064"
           id="stop3316" />
        <stop
           offset="0.6302"
           style="stop-color:#C92037"
           id="stop3318" />
        <stop
           offset="0.7514"
           style="stop-color:#CD2335"
           id="stop3320" />
        <stop
           offset="1"
           style="stop-color:#E97826"
           id="stop3322" />
      </linearGradient>
      <path
         style="fill:url(#linearGradient3752)"
         inkscape:connector-curvature="0"
         d="m 220.7,236.9 c 0.3,0 0.6,-0.1 1,-0.1 -0.3,0 -0.6,0.1 -1,0.1 l 0,0 z"
         id="path3324" />
      <path
         style="fill:#be202e"
         inkscape:connector-curvature="0"
         d="m 220.8,236.9 c 0,0 0,0 0,0 l 0,0 0,0 0,0 c 0,0 0,0 0,0 z"
         id="path3326" />
      <path
         style="opacity:0.35;fill:#be202e"
         inkscape:connector-curvature="0"
         d="m 220.8,236.9 c 0,0 0,0 0,0 l 0,0 0,0 0,0 c 0,0 0,0 0,0 z"
         id="path3328" />
      <linearGradient
         id="SVGID_10_"
         gradientUnits="userSpaceOnUse"
         x1="-7935.1431"
         y1="-747.9668"
         x2="-7815.856"
         y2="-747.9668"
         gradientTransform="matrix(0.4226,-0.9063,0.9063,0.4226,4226.9761,-6584.5938)">
        <stop
           offset="0.3233"
           style="stop-color:#9E2064"
           id="stop3331" />
        <stop
           offset="0.6302"
           style="stop-color:#C92037"
           id="stop3333" />
        <stop
           offset="0.7514"
           style="stop-color:#CD2335"
           id="stop3335" />
        <stop
           offset="1"
           style="stop-color:#E97826"
           id="stop3337" />
      </linearGradient>
      <path
         style="fill:url(#linearGradient3754)"
         inkscape:connector-curvature="0"
         d="m 220.8,236.9 c 0,0 0,0 0,0 l 0,0 0,0 0,0 c 0,0 0,0 0,0 z"
         id="path3339" />
    </g>
    <g
       id="g3341"
       transform="matrix(0.30648911,0,0,0.30648911,40.099899,130.78481)">
      <path
         style="fill:#b0afb0"
         inkscape:connector-curvature="0"
         d="m 327.7,68.1 v 9.6 H 325 v -9.6 h -3.4 v -2.3 h 9.4 v 2.3 h -3.3 z"
         id="path3343" />
      <path
         style="fill:#b0afb0"
         inkscape:connector-curvature="0"
         d="m 343.6,70.2 -3.2,6.5 h -1.6 l -3.2,-6.5 v 7.5 H 333 V 65.8 h 3.6 l 3.1,6.5 3.1,-6.5 h 3.6 v 11.9 h -2.6 v -7.5 z"
         id="path3345" />
    </g>
    <path
       inkscape:connector-curvature="0"
       id="path3718"
       style="font-size:160.72227478px;font-style:normal;font-variant:normal;font-weight:bold;font-stretch:normal;line-height:125%;letter-spacing:0px;word-spacing:0px;fill:url(#linearGradient9352);fill-opacity:1;stroke:#d22128;stroke-opacity:1;font-family:Droid Sans;-inkscape-font-specification:Droid Sans Bold"
       d="m 173.97572,294.40537 c -3.4007,-3e-5 -6.38284,-0.18315 -8.94645,-0.54934 -2.5636,-0.31394 -4.73481,-0.70633 -6.51365,-1.17717 l 0,-20.24724 c 1.93579,0.41854 3.97621,0.78477 6.12126,1.09869 2.09274,0.3139 4.39475,0.47085 6.90603,0.47087 2.40665,-2e-5 4.63018,-0.26161 6.6706,-0.78478 2.09274,-0.5232 3.89772,-1.43877 5.41496,-2.74672 1.56955,-1.25565 2.77287,-2.956 3.60998,-5.10105 0.8894,-2.14506 1.3341,-4.83945 1.33412,-8.0832 l 0,-111.35982 24.32808,0 0,110.57505 c -4e-5,6.59212 -0.96793,12.26866 -2.90368,17.02965 -1.8835,4.76096 -4.55173,8.68484 -8.00472,11.77165 -3.40072,3.13908 -7.48156,5.44109 -12.24252,6.90604 -4.76099,1.46488 -10.01899,2.19734 -15.77401,2.19737" />
    <path
       inkscape:connector-curvature="0"
       id="path3720"
       style="font-size:160.72227478px;font-style:normal;font-variant:normal;font-weight:bold;font-stretch:normal;line-height:125%;letter-spacing:0px;word-spacing:0px;fill:#000000;fill-opacity:1;stroke:none;font-family:Droid Sans;-inkscape-font-specification:Droid Sans Bold"
       d="m 272.08226,260.65997 -25.19134,-90.01389 -0.70629,0 c 0.31387,4.81338 0.57546,9.46972 0.78477,13.96903 0.1046,1.93585 0.18308,3.92395 0.23544,5.9643 0.1046,2.04049 0.18307,4.05475 0.23543,6.04278 0.1046,1.98816 0.15692,3.89779 0.15695,5.72887 0.0523,1.8312 0.0784,3.47923 0.0785,4.9441 l 0,53.36481 -21.73831,0 0,-114.73436 33.11757,0 24.79895,87.73804 0.47086,0 26.3685,-87.73804 33.11758,0 0,114.73436 -22.68005,0 0,-54.30655 c -1.1e-4,-1.36022 -1.1e-4,-2.90361 0,-4.63018 0.0522,-1.72645 0.10453,-3.55759 0.15696,-5.49344 0.0522,-1.93571 0.10453,-3.89765 0.15695,-5.88582 0.10453,-1.98803 0.18301,-3.92381 0.23544,-5.80735 0.20916,-4.39467 0.39227,-8.97253 0.54934,-13.73359 l -0.62782,0 -27.15328,89.85693 -22.36613,0" />
    <path
       inkscape:connector-curvature="0"
       id="path3722"
       style="font-size:160.72227478px;font-style:normal;font-variant:normal;font-weight:bold;font-stretch:normal;line-height:125%;letter-spacing:0px;word-spacing:0px;fill:#000000;fill-opacity:1;stroke:none;font-family:Droid Sans;-inkscape-font-specification:Droid Sans Bold"
       d="m 392.43604,188.30356 c -4.23784,7e-5 -7.76933,1.49115 -10.59449,4.47323 -2.77291,2.98221 -4.36862,7.66471 -4.78714,14.0475 l 30.52782,0 c -0.0524,-2.66819 -0.39245,-5.12715 -1.02021,-7.3769 -0.62789,-2.24963 -1.56962,-4.18541 -2.8252,-5.80735 -1.2557,-1.67412 -2.82525,-2.98208 -4.70866,-3.92388 -1.88352,-0.94166 -4.08089,-1.41253 -6.59212,-1.4126 m 3.06062,73.92597 c -6.27825,0 -12.05944,-0.91558 -17.34356,-2.74672 -5.28419,-1.83114 -9.83589,-4.57786 -13.65512,-8.24016 -3.81926,-3.71459 -6.80141,-8.37093 -8.94645,-13.96902 -2.09275,-5.65037 -3.13912,-12.26864 -3.13911,-19.85485 -10e-6,-7.69077 0.96788,-14.41368 2.90368,-20.16877 1.93577,-5.75496 4.63016,-10.54209 8.0832,-14.36141 3.50531,-3.87148 7.69078,-6.77516 12.55642,-8.71102 4.9179,-1.9357 10.35902,-2.90359 16.32336,-2.90368 5.80729,9e-5 11.03913,0.88951 15.69553,2.66824 4.7086,1.7266 8.6848,4.2902 11.92861,7.69082 3.29598,3.40077 5.80727,7.58624 7.53386,12.55642 1.77874,4.918 2.66815,10.56839 2.66824,16.95118 l 0,11.6147 -53.52177,0 c 0.1046,3.34841 0.62778,6.38288 1.56955,9.10341 0.99401,2.66826 2.35429,4.94411 4.08084,6.82755 1.77879,1.83117 3.89768,3.24377 6.35669,4.2378 2.51124,0.99407 5.36259,1.49109 8.55407,1.49107 2.66818,2e-5 5.17946,-0.13077 7.53385,-0.39238 2.40659,-0.3139 4.73476,-0.7586 6.98452,-1.33412 2.24962,-0.57549 4.47315,-1.28179 6.6706,-2.1189 2.1973,-0.88939 4.44699,-1.9096 6.74908,-3.06063 l 0,18.52073 c -2.09282,1.09869 -4.21171,2.04042 -6.35669,2.8252 -2.09281,0.73246 -4.31635,1.36028 -6.67061,1.88346 -2.35439,0.52318 -4.89183,0.88941 -7.61233,1.09869 -2.72062,0.26159 -5.70277,0.39239 -8.94646,0.39239" />
    <path
       inkscape:connector-curvature="0"
       id="path3724"
       style="font-size:160.72227478px;font-style:normal;font-variant:normal;font-weight:bold;font-stretch:normal;line-height:125%;letter-spacing:0px;word-spacing:0px;fill:#000000;fill-opacity:1;stroke:none;font-family:Droid Sans;-inkscape-font-specification:Droid Sans Bold"
       d="m 478.13837,243.15945 c 2.35428,2e-5 4.57781,-0.26157 6.6706,-0.78477 2.145,-0.52317 4.31622,-1.17715 6.51365,-1.96195 l 0,17.81444 c -2.24975,1.151 -5.04879,2.09273 -8.39711,2.82519 -3.29611,0.78478 -6.90608,1.17717 -10.82992,1.17717 -3.81929,0 -7.37694,-0.44471 -10.67296,-1.33412 -3.29609,-0.88942 -6.14745,-2.43281 -8.55407,-4.63019 -2.40667,-2.24968 -4.31629,-5.23183 -5.72887,-8.94645 -1.3603,-3.76691 -2.04043,-8.47557 -2.04042,-14.12598 l 0,-42.29947 -11.45774,0 0,-10.12362 13.18425,-8.00472 6.90603,-18.52073 15.30315,0 0,18.67768 21.34593,0 0,17.97139 -21.34593,0 0,42.29947 c -4e-5,3.40072 0.83706,5.912 2.51129,7.53385 1.67414,1.62189 3.87152,2.43283 6.59212,2.43281" />
    <path
       inkscape:connector-curvature="0"
       id="path3726"
       style="font-size:160.72227478px;font-style:normal;font-variant:normal;font-weight:bold;font-stretch:normal;line-height:125%;letter-spacing:0px;word-spacing:0px;fill:#000000;fill-opacity:1;stroke:none;font-family:Droid Sans;-inkscape-font-specification:Droid Sans Bold"
       d="m 536.53049,188.30356 c -4.23784,7e-5 -7.76933,1.49115 -10.59449,4.47323 -2.77291,2.98221 -4.36862,7.66471 -4.78714,14.0475 l 30.52782,0 c -0.0524,-2.66819 -0.39245,-5.12715 -1.02021,-7.3769 -0.62788,-2.24963 -1.56962,-4.18541 -2.8252,-5.80735 -1.2557,-1.67412 -2.82525,-2.98208 -4.70866,-3.92388 -1.88351,-0.94166 -4.08089,-1.41253 -6.59212,-1.4126 m 3.06063,73.92597 c -6.27826,0 -12.05944,-0.91558 -17.34357,-2.74672 -5.28419,-1.83114 -9.83589,-4.57786 -13.65511,-8.24016 -3.81927,-3.71459 -6.80142,-8.37093 -8.94646,-13.96902 -2.09275,-5.65037 -3.13911,-12.26864 -3.13911,-19.85485 0,-7.69077 0.96789,-14.41368 2.90368,-20.16877 1.93577,-5.75496 4.63017,-10.54209 8.0832,-14.36141 3.50531,-3.87148 7.69078,-6.77516 12.55643,-8.71102 4.91789,-1.9357 10.35901,-2.90359 16.32335,-2.90368 5.8073,9e-5 11.03914,0.88951 15.69554,2.66824 4.70859,1.7266 8.68479,4.2902 11.9286,7.69082 3.29599,3.40077 5.80727,7.58624 7.53386,12.55642 1.77874,4.918 2.66815,10.56839 2.66824,16.95118 l 0,11.6147 -53.52177,0 c 0.1046,3.34841 0.62779,6.38288 1.56955,9.10341 0.99402,2.66826 2.3543,4.94411 4.08084,6.82755 1.77879,1.83117 3.89768,3.24377 6.35669,4.2378 2.51124,0.99407 5.36259,1.49109 8.55407,1.49107 2.66818,2e-5 5.17947,-0.13077 7.53385,-0.39238 2.40659,-0.3139 4.73476,-0.7586 6.98452,-1.33412 2.24962,-0.57549 4.47315,-1.28179 6.6706,-2.1189 2.1973,-0.88939 4.44699,-1.9096 6.74908,-3.06063 l 0,18.52073 c -2.09282,1.09869 -4.21171,2.04042 -6.35669,2.8252 -2.09281,0.73246 -4.31634,1.36028 -6.6706,1.88346 -2.3544,0.52318 -4.89184,0.88941 -7.61234,1.09869 -2.72062,0.26159 -5.70276,0.39239 -8.94645,0.39239" />
    <path
       inkscape:connector-curvature="0"
       id="path3728"
       style="font-size:160.72227478px;font-style:normal;font-variant:normal;font-weight:bold;font-stretch:normal;line-height:125%;letter-spacing:0px;word-spacing:0px;fill:#000000;fill-opacity:1;stroke:none;font-family:Droid Sans;-inkscape-font-specification:Droid Sans Bold"
       d="m 626.35644,171.2739 c 0.62776,9e-5 1.3079,0.0263 2.04042,0.0785 0.78472,9e-5 1.51717,0.0524 2.19738,0.15696 0.73239,0.0524 1.38637,0.13088 1.96194,0.23543 0.62775,0.0524 1.09862,0.13088 1.4126,0.23543 l 0,22.44462 c -0.41862,-0.10457 -0.99412,-0.20921 -1.72651,-0.31391 -0.73252,-0.10457 -1.5173,-0.18305 -2.35433,-0.23544 -0.78484,-0.10457 -1.56962,-0.15689 -2.35433,-0.15695 -0.78484,-0.0523 -1.43882,-0.0784 -1.96194,-0.0785 -3.08685,7e-5 -5.9382,0.39246 -8.55407,1.17717 -2.56365,0.78484 -4.78718,2.06664 -6.6706,3.8454 -1.83119,1.72657 -3.26995,4.02858 -4.31628,6.90604 -0.99408,2.82525 -1.49111,6.30442 -1.49107,10.43753 l 0,44.65379 -23.93569,0 0,-87.73804 18.12834,0 3.5315,13.18425 1.17716,0 c 1.25561,-2.24961 2.61589,-4.29003 4.08084,-6.12125 1.46488,-1.83107 3.08675,-3.37446 4.86562,-4.63019 1.8311,-1.30787 3.87151,-2.30192 6.12126,-2.98215 2.30195,-0.73237 4.91787,-1.0986 7.84776,-1.09869" />
    <g
       style="font-size:35.26461411px;font-style:normal;font-variant:normal;font-weight:bold;font-stretch:normal;line-height:125%;letter-spacing:0px;word-spacing:0px;fill:#000000;fill-opacity:1;stroke:none;font-family:Arial;-inkscape-font-specification:Sans Bold"
       id="text3756">
      <path
         d="m 658.02758,171.06244 -5.32069,0 0,-20.73174 -6.31939,0 0,-4.44251 17.94225,0 0,4.44251 -6.30217,0 0,20.73174"
         style="font-family:Droid Sans;-inkscape-font-specification:Droid Sans Bold"
         id="path3109" />
      <path
         d="m 678.32884,171.06244 -5.52732,-19.75025 -0.15497,0 c 0.0689,1.05612 0.12627,2.07778 0.17219,3.06499 0.0229,0.42475 0.0402,0.86097 0.0517,1.30865 0.023,0.44771 0.0402,0.88966 0.0517,1.32586 0.023,0.43623 0.0344,0.85523 0.0344,1.25699 0.0115,0.4018 0.0172,0.76339 0.0172,1.08481 l 0,11.70895 -4.76967,0 0,-25.17425 7.26643,0 5.44122,19.2509 0.10332,0 5.7856,-19.2509 7.26644,0 0,25.17425 -4.97631,0 0,-11.91558 c -2e-5,-0.29845 -2e-5,-0.6371 0,-1.01593 0.0115,-0.3788 0.0229,-0.78058 0.0344,-1.20533 0.0115,-0.42472 0.0229,-0.8552 0.0344,-1.29143 0.0229,-0.4362 0.0401,-0.86094 0.0517,-1.27421 0.0459,-0.96425 0.0861,-1.96869 0.12053,-3.01333 l -0.13775,0 -5.95779,19.71581 -4.90743,0"
         style="font-family:Droid Sans;-inkscape-font-specification:Droid Sans Bold"
         id="path3111" />
    </g>
    <text
       xml:space="preserve"
       style="font-size:48px;font-style:normal;font-variant:normal;font-weight:bold;font-stretch:normal;line-height:125%;letter-spacing:0px;word-spacing:0px;fill:#000000;fill-opacity:1;stroke:none;font-family:Arial;-inkscape-font-specification:Sans Bold"
       x="175.76654"
       y="103.82894"
       id="text3762"
       sodipodi:linespacing="125%"><tspan
         sodipodi:role="line"
         id="tspan3764"
         x="175.76654"
         y="103.82894"
         style="font-style:normal;font-variant:normal;font-weight:bold;font-stretch:normal;font-family:Droid Sans;-inkscape-font-specification:Droid Sans Bold" /></text>
    <g
       id="g8126"
       transform="matrix(0.34856159,0,0,0.34856159,107.16834,31.623772)">
      <g
         id="g8128">
        <path
           style="fill:#d22128"
           inkscape:connector-curvature="0"
           d="m 232.6,277.3 49.3,-117.8 h 9.5 l 49.3,117.8 H 328.3 L 313,240.5 h -53 l -15.1,36.8 h -12.3 z m 54.1,-104.2 -24.2,58.2 h 47.8 l -23.6,-58.2 z"
           id="path8130" />
        <path
           style="fill:#d22128"
           inkscape:connector-curvature="0"
           d="M 353.3,277.3 V 159.5 h 48.8 c 20.2,0 34.8,18.7 34.8,37 0,19.2 -13.6,37.3 -33.8,37.3 h -38.3 v 43.5 h -11.5 z m 11.5,-53.8 h 37.7 c 13.9,0 22.9,-12.8 22.9,-27 0,-14.8 -10.9,-26.7 -23.9,-26.7 h -36.7 v 53.7 z"
           id="path8132" />
        <path
           style="fill:#d22128"
           inkscape:connector-curvature="0"
           d="m 430.5,277.3 49.3,-117.8 h 9.5 l 49.3,117.8 H 526 l -15.3,-36.8 h -52.9 l -15.1,36.8 h -12.2 z m 54.1,-104.2 -24.2,58.2 h 47.8 l -23.6,-58.2 z"
           id="path8134" />
        <path
           style="fill:#d22128"
           inkscape:connector-curvature="0"
           d="m 594.2,158.8 c 20.9,0 36.2,10.6 43.5,25.7 l -9.3,5.6 c -7.5,-15.6 -22.1,-20.9 -34.8,-20.9 -28.2,0 -43.6,25.2 -43.6,48.9 0,26 19.1,49.6 44.1,49.6 13.3,0 28.9,-6.6 36.3,-21.9 l 9.6,5 c -7.6,17.6 -28.5,27.4 -46.6,27.4 -32.3,0 -55.1,-30.9 -55.1,-60.7 0,-28.3 20.4,-58.7 55.9,-58.7 z"
           id="path8136" />
        <path
           style="fill:#d22128"
           inkscape:connector-curvature="0"
           d="m 749.1,159.5 v 117.8 h -11.6 v -55.1 h -69.8 v 55.1 H 656.3 V 159.5 h 11.4 v 52.4 h 69.8 v -52.4 h 11.6 z"
           id="path8138" />
        <path
           style="fill:#d22128"
           inkscape:connector-curvature="0"
           d="m 854.8,267 v 10.3 H 775.7 V 159.5 h 77.6 v 10.3 h -66.2 v 42.5 h 57.7 v 9.8 H 787.1 V 267 h 67.7 z"
           id="path8140" />
      </g>
    </g>
    <g
       id="g8326"
       transform="translate(132.42046,222.12974)" />
    <g
       id="g8328"
       transform="translate(132.42046,222.12974)" />
    <g
       id="g8330"
       transform="translate(132.42046,222.12974)" />
    <g
       id="g8332"
       transform="translate(132.42046,222.12974)" />
    <g
       id="g8334"
       transform="translate(132.42046,222.12974)" />
    <g
       id="g8336"
       transform="translate(132.42046,222.12974)" />
  </g>
</svg>
